<?xml version="1.0" encoding="UTF-8" standalone="no"?>
<!-- Created with Inkscape (http://www.inkscape.org/) -->

<svg
   xmlns:dc="http://purl.org/dc/elements/1.1/"
   xmlns:cc="http://creativecommons.org/ns#"
   xmlns:rdf="http://www.w3.org/1999/02/22-rdf-syntax-ns#"
   xmlns:svg="http://www.w3.org/2000/svg"
   xmlns="http://www.w3.org/2000/svg"
   xmlns:sodipodi="http://sodipodi.sourceforge.net/DTD/sodipodi-0.dtd"
   xmlns:inkscape="http://www.inkscape.org/namespaces/inkscape"
   width="64.438522mm"
   height="67.964211mm"
   viewBox="0 0 228.32547 240.81807"
   id="svg2"
   version="1.1"
   inkscape:version="0.91 r13725"
   sodipodi:docname="logo.svg">
  <defs
     id="defs4" />
  <sodipodi:namedview
     id="base"
     pagecolor="#ffffff"
     bordercolor="#666666"
     borderopacity="1.0"
     inkscape:pageopacity="0.0"
     inkscape:pageshadow="2"
     inkscape:zoom="0.7"
     inkscape:cx="-110.02138"
     inkscape:cy="16.477395"
     inkscape:document-units="px"
     inkscape:current-layer="layer1"
     showgrid="false"
     fit-margin-top="0"
     fit-margin-left="0"
     fit-margin-right="0"
     fit-margin-bottom="0"
     inkscape:window-width="1366"
     inkscape:window-height="744"
     inkscape:window-x="1920"
     inkscape:window-y="312"
     inkscape:window-maximized="1" />
  <metadata
     id="metadata7">
    <rdf:RDF>
      <cc:Work
         rdf:about="">
        <dc:format>image/svg+xml</dc:format>
        <dc:type
           rdf:resource="http://purl.org/dc/dcmitype/StillImage" />
        <dc:title></dc:title>
      </cc:Work>
    </rdf:RDF>
  </metadata>
  <g
     inkscape:label="Layer 1"
     inkscape:groupmode="layer"
     id="layer1"
     transform="translate(-84.664855,-685.01763)">
    <path
       inkscape:connector-curvature="0"
       id="path4149"
       d="m 223.25298,920.81859 c 1.55088,-2.75942 5.92668,-8.76019 9.72401,-13.33506 l 6.90422,-8.31793 -4.33152,0.85207 c -2.38234,0.46864 -8.55028,3.41395 -13.70653,6.54514 l -9.375,5.69307 5,-5.18561 c 2.75,-2.85209 8.50022,-7.49954 12.77824,-10.32767 4.27804,-2.82814 7.56371,-5.35662 7.3015,-5.61883 -1.04284,-1.04282 -14.75804,6.64939 -23.41189,13.13063 -5.04232,3.77641 -7.7616,5.3432 -6.04285,3.48175 4.80404,-5.20287 17.39242,-14.35146 24.6875,-17.94161 6.17462,-3.03873 9.16079,-6.02588 4.375,-4.37643 -1.80751,0.62296 -1.75322,0.38373 0.3125,-1.37725 2.41627,-2.0598 2.33655,-2.10889 -2.38003,-1.46551 -2.68403,0.36612 -9.01215,2.628 -14.0625,5.02641 -5.05037,2.3984 -9.18247,4.16276 -9.18247,3.92081 0,-1.48531 17.3321,-9.68241 33.3472,-15.77135 1.78724,-0.6795 2.94109,-1.54388 2.56413,-1.92086 -0.62214,-0.62212 -20.95268,4.35414 -26.238,6.42221 -1.64008,0.64175 -2.01558,0.37653 -1.4721,-1.03976 1.46971,-3.83002 -8.08213,-3.712 -18.44484,0.2279 -1.6897,0.64243 -8.76009,2.11913 -15.71196,3.28156 -11.60289,1.94014 -12.87402,1.94945 -15.49523,0.1135 -2.72199,-1.90657 -2.73677,-2.00006 -0.31624,-2.00006 1.39657,0 3.5383,-0.73055 4.7594,-1.62344 2.11651,-1.54762 2.10318,-1.82489 -0.2854,-5.9375 -5.16456,-8.89222 -5.48816,-13.2961 -2.21219,-30.10576 1.65693,-8.50206 3.42967,-18.8333 3.93941,-22.9583 l 0.9268,-7.5 1.78232,6.875 c 2.81829,10.87111 4.1067,10.44369 4.1067,-1.36238 0,-11.53792 -2.21863,-21.98549 -6.416,-30.21301 -3.93603,-7.71525 -16.52861,-20.2217 -28.15385,-27.96128 -8.69858,-5.79114 -47.20274,-25.25942 -60.157732,-30.41665 -2.25642,-0.89825 -3.9119,-1.82387 -3.67884,-2.05692 1.22302,-1.22303 45.528202,17.101 59.436442,24.58211 24.97555,13.43411 40.43357,31.88609 42.36153,50.56625 0.90255,8.74484 2.81837,6.61627 2.82448,-3.13812 0.007,-11.89354 -3.96414,-23.23307 -11.49233,-32.8125 -2.02607,-2.57813 -3.42597,-4.6875 -3.11089,-4.6875 0.31508,0 2.96432,0.84375 5.88719,1.875 2.92288,1.03125 5.52485,1.875 5.78216,1.875 1.17547,0 0.29075,-6.71662 -1.28646,-9.76661 -2.27493,-4.39922 -14.05006,-15.51888 -19.56821,-18.47893 -3.92193,-2.10379 -4.05372,-2.34643 -1.48999,-2.74314 4.38081,-0.67788 3.4227,-2.72345 -5,-10.6751 l -7.8125,-7.37557 7.5,4.65935 c 19.35541,12.0245 31.22288,23.92758 38.01593,38.13 4.34201,9.07798 4.48407,9.83043 4.48407,23.75 0,16.51163 -1.41288,21.72751 -12.74355,47.04461 -8.32509,18.6015 -8.66712,24.21138 -1.75909,28.85209 4.14947,2.78754 4.99042,2.8533 36.48873,2.8533 29.09831,0 37.40848,-0.78601 31.6545,-2.99403 -1.08354,-0.41578 -10.50217,-0.77121 -20.93032,-0.78985 -22.03843,-0.0394 -40.00712,-1.55823 -44.89777,-3.79515 -4.17134,-1.90791 -4.54463,-6.69943 -1.11375,-14.29597 l 2.25819,-5 0.88245,4.64365 c 0.48534,2.55401 1.37306,4.94687 1.97271,5.31747 1.50764,0.93178 8.22304,-17.05896 12.81665,-34.33612 3.22343,-12.1237 3.83044,-16.72419 3.87588,-29.375 0.065,-18.09498 -1.90844,-24.25591 -12.00315,-37.47315 -9.12914,-11.95298 -23.1886,-22.93898 -46.60016,-36.41314 -21.49397,-12.37052 -28.33909,-18.66622 -8.9033,-8.18868 6.58056,3.54748 12.67403,6.44997 13.54103,6.44997 3.11506,0 -7.2113,-8.9798 -16.77172,-14.58469 -5.36537,-3.1455 -9.53923,-5.93507 -9.27525,-6.19905 0.84139,-0.84139 32.66751,13.99146 45.6247,21.26381 52.56024,29.49993 63.01049,65.97758 35.2167,122.92745 -4.10216,8.40539 -7.45848,15.84408 -7.45848,16.5304 0,3.2172 17.38799,8.48868 23.1936,7.03155 3.56293,-0.89423 4.01062,-3.78947 0.8689,-5.61934 -5.07187,-2.95411 38.87735,-0.44533 51.93562,2.96466 6.99961,1.82785 11.50188,4.86305 11.50188,7.75395 0,2.05111 2.10625,2.2375 2.77037,0.24516 0.76198,-2.28595 9.16257,-0.12965 13.40627,3.44119 2.06263,1.73557 4.32604,5.22882 5.02983,7.76276 1.86116,6.70105 1.49126,8.92727 -0.76549,4.60715 -2.85431,-5.46402 -5.23164,-6.87348 -11.61739,-6.88765 -5.84522,-0.013 -21.63944,4.78218 -21.03535,6.38638 0.18523,0.49185 3.95134,3.33708 8.36914,6.32277 4.41781,2.98568 8.80957,6.63958 9.75949,8.11979 l 1.72711,2.69129 -5.38449,-2.66759 c -7.45574,-3.69374 -17.24757,-3.55519 -25.38449,0.35917 -3.4375,1.65365 -10.29002,7.02123 -15.22783,11.92795 -6.14265,6.10398 -8.38335,7.77169 -7.09534,5.28094 4.72102,-9.12945 -3.56098,-3.51385 -15.25521,10.34379 -4.6405,5.49898 -8.66663,9.99816 -8.94693,9.99816 -0.28031,0 0.75925,-2.2577 2.31013,-5.01713 z m 59.79555,-59.96582 c 1.50781,-0.014 1.46323,-0.38417 -0.25299,-2.1004 -2.54748,-2.54747 -8.80736,-2.71459 -11.70619,-0.3125 -1.96021,1.62433 -1.83644,1.83836 1.49589,2.58693 1.99811,0.44885 4.75792,0.59716 6.13292,0.32957 1.375,-0.26759 3.32367,-0.49421 4.33037,-0.5036 z m -64.55937,-61.32033 c 3.32475,-13.52182 3.74999,-22.18324 1.59155,-32.41719 -2.73356,-12.96079 -7.21,-21.39342 -16.69293,-31.44583 -7.17735,-7.60838 -24.66072,-20.88428 -25.88747,-19.65752 -0.25185,0.25185 3.1276,3.39255 7.50987,6.97935 10.29418,8.42556 20.92157,21.34719 25.9632,31.56815 3.62792,7.35495 4.03508,9.36769 4.43361,21.91704 0.29397,9.25714 -0.23766,17.42847 -1.61059,24.75536 -3.36257,17.94487 0.17786,16.6628 4.69276,-1.69936 z"
       style="fill:#edab00" />
  </g>
</svg>
